<?xml version="1.0" encoding="utf-8"?>
<!-- Generator: Adobe Illustrator 15.0.0, SVG Export Plug-In . SVG Version: 6.00 Build 0)  -->
<!DOCTYPE svg PUBLIC "-//W3C//DTD SVG 1.1//EN" "http://www.w3.org/Graphics/SVG/1.1/DTD/svg11.dtd">
<svg class="gd-calculator-icon" version="1.1" id="Layer_1" xmlns="http://www.w3.org/2000/svg" xmlns:xlink="http://www.w3.org/1999/xlink" x="0px" y="0px"
	 width="512px" height="512px" viewBox="0 0 512 512" style="enable-background:new 0 0 512 512;" xml:space="preserve">
<path id="calculator-5-icon" d="M335.117,154.279c0-5.427-5.427-7.887-11.106-7.887h-5.257v-9.24h5.003
	c4.323-0.084,9.834-1.695,9.834-6.359c0-3.305-2.712-5.764-8.139-5.764c-4.493,0-9.241,1.949-11.531,3.306l-2.628-9.325
	c3.307-2.119,9.92-4.155,17.041-4.155c11.785,0,18.314,6.189,18.314,13.735c0,5.85-3.309,10.428-10.091,12.803v0.17
	c6.612,1.186,11.955,6.188,11.955,13.395c0,9.75-8.563,16.871-22.553,16.871c-7.121,0-13.141-1.864-16.363-3.9l2.628-9.664
	c2.29,1.187,7.546,3.392,12.805,3.392C331.725,161.655,335.117,158.433,335.117,154.279z M416,50v412H96V50H416z M193.648,379.251
	h-57.609V422h57.609V379.251L193.648,379.251z M193.648,305.43h-57.609v42.75h57.609V305.43L193.648,305.43z M193.648,231.608
	h-57.609v42.751h57.609V231.608L193.648,231.608z M285.068,379.251h-57.606V422h57.606V379.251z M285.068,305.43h-57.606v42.75
	h57.606V305.43z M285.068,231.608h-57.606v42.751h57.606V231.608z M376,305.43h-57.607V422H376V305.43z M376,231.608h-57.607v42.751
	H376V231.608z M376,90H136.039v105.806H376V90z M300.15,160.297H279.38c0,0,19.753-14.091,19.753-28.146
	c0-19.873-24.998-20.97-37.389-11.616l3.646,9.242c9.275-7.096,20.856-5.931,20.856,3.475c-0.214,8.067-9.462,15.623-25.181,29.844
	v7.801h39.084V160.297L300.15,160.297z M236.346,127.232h0.169v43.664h12.463v-55.109h-10.683l-14.582,6.782l2.119,9.665
	L236.346,127.232z"/>
</svg>
