<?xml version="1.0" encoding="utf-8"?>
<!-- Generator: Adobe Illustrator 17.1.0, SVG Export Plug-In . SVG Version: 6.00 Build 0)  -->
<!DOCTYPE svg PUBLIC "-//W3C//DTD SVG 1.1//EN" "http://www.w3.org/Graphics/SVG/1.1/DTD/svg11.dtd">
<svg class="gd-email-icon" version="1.1" id="Layer_1" xmlns="http://www.w3.org/2000/svg" xmlns:xlink="http://www.w3.org/1999/xlink" x="0px" y="0px"
	 viewBox="0 5 30 20" enable-background="new 0 5 30 20" xml:space="preserve">
<path d="M0,23.4V6.6c0,0,0-0.2,0-0.6l9.8,8.4L0.1,24C0,23.7,0,23.5,0,23.4z M1.2,5c0.1-0.1,0.3,0,0.5,0h26.6c0.2,0,0.3-0.1,0.5,0
	l-9.9,8.4l-1.3,1L15,16.6l-2.6-2.1l-1.3-1L1.2,5z M1.3,25l9.9-9.5l3.8,3.1l3.8-3.1l9.9,9.4c-0.2,0.1-0.3,0-0.5,0H1.7
	C1.6,25,1.4,25.1,1.3,25z M20.2,14.5L30,6.1c0.1,0.2,0,0.4,0,0.6v16.8c0,0.2,0,0.4,0,0.6L20.2,14.5z"/>
</svg>
